# xmcd CD database file
#
# Track frame offsets:
#	150
#	19650
#	38602
#	54088
#	72945
#	89454
#	111968
#	130322
#	146080
#	160583
#	177128
#	193562
#
# Disc length: 2897 seconds
#
# Revision: 0
# Processed by: cddbd v1.5.2PL0 Copyright (c) Steve Scherf et al.
# Submitted via: CDex 1.70beta2
#
DISCID=990b4f0c
DTITLE=Loulou Djine - Zapad
DYEAR=2009
DGENRE=Jazz
TTITLE0=Maroushka
TTITLE1=Tsole manoile
TTITLE2=Loulou Djine
TTITLE3=Nizam
TTITLE4=Tchaiorie shoukarie
TTITLE5=Zute dunje
TTITLE6=Zapad
TTITLE7=Ma ce do
TTITLE8=Western times
TTITLE9=So maki sum se rodil jas
TTITLE10=Zajko
TTITLE11=Hai dji
EXTD=YEAR: 2009
EXTT0=
EXTT1=
EXTT2=
EXTT3=
EXTT4=
EXTT5=
EXTT6=
EXTT7=
EXTT8=
EXTT9=
EXTT10=
EXTT11=
PLAYORDER=
